<svg width="48" height="48" viewBox="0 0 48 48" fill="none" xmlns="http://www.w3.org/2000/svg">
<path d="M8 8H11.2513C12.386 8 12.9534 8 13.4043 8.24867C13.5902 8.35121 13.7587 8.48272 13.9032 8.63824C14.2538 9.01537 14.3915 9.56581 14.6667 10.6667L15.0299 12.1194C15.232 12.928 15.3331 13.3323 15.4891 13.6715C16.0307 14.849 17.1092 15.6911 18.3829 15.9309C18.7498 16 19.1665 16 20 16" stroke="#03332E" stroke-width="4" stroke-linecap="round"/>
<path d="M36 34H15.1018C14.8094 34 14.6632 34 14.5523 33.9876C13.3771 33.856 12.5721 32.7391 12.8189 31.5826C12.8422 31.4734 12.8884 31.3347 12.9809 31.0574C13.0835 30.7494 13.1349 30.5954 13.1916 30.4595C13.7721 29.0683 15.0855 28.1217 16.589 28.0108C16.7358 28 16.8981 28 17.2227 28H28" stroke="#03332E" stroke-width="4" stroke-linecap="round" stroke-linejoin="round"/>
<path d="M31.5279 28H19.3885C17.4332 28 15.7644 26.5863 15.4429 24.6576L14.5822 19.4932C14.2774 17.6646 15.6876 16 17.5414 16H36.7639C38.2507 16 39.2177 17.5646 38.5528 18.8944L35.1056 25.7889C34.428 27.144 33.043 28 31.5279 28Z" fill="#03332E" stroke="#03332E" stroke-width="4" stroke-linecap="round"/>
<circle cx="34" cy="40" r="2" fill="#03332E"/>
<circle cx="18" cy="40" r="2" fill="#03332E"/>
</svg>
