<svg width="48" height="48" viewBox="0 0 48 48" fill="none" xmlns="http://www.w3.org/2000/svg">
<path d="M42 24C42 20.239 40.8219 16.5725 38.6312 13.5154C36.4406 10.4583 33.3473 8.16419 29.7859 6.95526C26.2245 5.74633 22.3739 5.68332 18.7749 6.77507C15.1758 7.86683 12.0092 10.0585 9.71964 13.0423C7.4301 16.0261 6.13269 19.6521 6.00964 23.4111C5.88658 27.17 6.94406 30.8731 9.03355 34.0003C11.123 37.1274 14.1396 39.5215 17.6595 40.8463C21.1794 42.1711 25.0259 42.3601 28.6587 41.3867" stroke="#03332E" stroke-width="4" stroke-linecap="round"/>
<circle cx="24" cy="24" r="8" stroke="#03332E" stroke-width="4"/>
<path d="M32 18V27C32 29.7614 34.2386 32 37 32C39.7614 32 42 29.7614 42 27V24" stroke="#03332E" stroke-width="4" stroke-linecap="round"/>
</svg>
