<svg width="48" height="48" viewBox="0 0 48 48" fill="none" xmlns="http://www.w3.org/2000/svg">
<path d="M26 8C31.6178 8 34.4265 8.00039 36.4443 9.34863C37.3178 9.93229 38.0677 10.6822 38.6514 11.5557C39.9996 13.5735 40 16.3822 40 22C40 27.6178 39.9996 30.4265 38.6514 32.4443C38.0677 33.3178 37.3178 34.0677 36.4443 34.6514C34.6816 35.8292 32.3154 35.9773 28 35.9961V36L25.7891 40.4219C25.052 41.896 22.948 41.896 22.2109 40.4219L20 36V35.9961C15.6846 35.9773 13.3184 35.8292 11.5557 34.6514C10.6822 34.0677 9.93229 33.3178 9.34863 32.4443C8.00039 30.4265 8 27.6178 8 22C8 16.3822 8.00039 13.5735 9.34863 11.5557C9.93229 10.6822 10.6822 9.93229 11.5557 9.34863C13.5735 8.00039 16.3822 8 22 8H26ZM16 20C14.8954 20 14 20.8954 14 22C14 23.1046 14.8954 24 16 24C17.1046 24 18 23.1046 18 22C18 20.8954 17.1046 20 16 20ZM24 20C22.8954 20 22 20.8954 22 22C22 23.1046 22.8954 24 24 24C25.1046 24 26 23.1046 26 22C26 20.8954 25.1046 20 24 20ZM32 20C30.8954 20 30 20.8954 30 22C30 23.1046 30.8954 24 32 24C33.1046 24 34 23.1046 34 22C34 20.8954 33.1046 20 32 20Z" fill="#03332E"/>
</svg>
